<svg xmlns="http://www.w3.org/2000/svg" width="140" height="140" fill="none"><path fill="#fff" d="M140 70A70 70 0 1 1 0 70a70 70 0 0 1 140 0Z"/><g filter="url(#a)"><path fill="#000" d="m79 60-3-6-12 6 3 6 12-6Zm10 52a6 6 0 1 0 12-6l-12 6ZM67 66l22 46 12-6-22-46-12 6Z"/></g><g filter="url(#b)"><path fill="#000" d="M82 31 63 44l21 10-2-23ZM51 90a2 2 0 1 0 4 2l-4-2Zm21-44L51 90l4 2 21-44-4-2Z"/></g><g filter="url(#c)"><path stroke="#000" stroke-linecap="round" stroke-width="13" d="m107 35-12 74"/></g><g filter="url(#d)"><path fill="#000" d="m65 52 3-6 12 6-3 6-12-6Zm-14 60a7 7 0 0 1-12-6l12 6Zm26-54-26 54-12-6 26-54 12 6Z"/></g><g filter="url(#e)"><path stroke="#000" stroke-linecap="round" stroke-width="13" d="m33 35 12 74"/></g><defs><filter id="a" width="45.2" height="69.2" x="60.3" y="50.3" color-interpolation-filters="sRGB" filterUnits="userSpaceOnUse"><feFlood flood-opacity="0" result="BackgroundImageFix"/><feGaussianBlur in="BackgroundImageFix" stdDeviation="2"/><feComposite in2="SourceAlpha" operator="in" result="effect1_backgroundBlur_3_5"/><feBlend in="SourceGraphic" in2="effect1_backgroundBlur_3_5" result="shape"/></filter><filter id="b" width="40.7" height="70" x="47" y="27" color-interpolation-filters="sRGB" filterUnits="userSpaceOnUse"><feFlood flood-opacity="0" result="BackgroundImageFix"/><feGaussianBlur in="BackgroundImageFix" stdDeviation="2"/><feComposite in2="SourceAlpha" operator="in" result="effect1_backgroundBlur_3_5"/><feBlend in="SourceGraphic" in2="effect1_backgroundBlur_3_5" result="shape"/></filter><filter id="c" width="33" height="94.6" x="84.5" y="24.5" color-interpolation-filters="sRGB" filterUnits="userSpaceOnUse"><feFlood flood-opacity="0" result="BackgroundImageFix"/><feGaussianBlur in="BackgroundImageFix" stdDeviation="2"/><feComposite in2="SourceAlpha" operator="in" result="effect1_backgroundBlur_3_5"/><feBlend in="SourceGraphic" in2="effect1_backgroundBlur_3_5" result="shape"/></filter><filter id="d" width="49.1" height="77.3" x="34.5" y="42.3" color-interpolation-filters="sRGB" filterUnits="userSpaceOnUse"><feFlood flood-opacity="0" result="BackgroundImageFix"/><feGaussianBlur in="BackgroundImageFix" stdDeviation="2"/><feComposite in2="SourceAlpha" operator="in" result="effect1_backgroundBlur_3_5"/><feBlend in="SourceGraphic" in2="effect1_backgroundBlur_3_5" result="shape"/></filter><filter id="e" width="33" height="94.6" x="22.5" y="24.5" color-interpolation-filters="sRGB" filterUnits="userSpaceOnUse"><feFlood flood-opacity="0" result="BackgroundImageFix"/><feGaussianBlur in="BackgroundImageFix" stdDeviation="2"/><feComposite in2="SourceAlpha" operator="in" result="effect1_backgroundBlur_3_5"/><feBlend in="SourceGraphic" in2="effect1_backgroundBlur_3_5" result="shape"/></filter></defs></svg>