<svg width="140" height="140" viewBox="0 0 140 140" fill="none" xmlns="http://www.w3.org/2000/svg">
    <path d="M140 70C140 108.66 108.66 140 70 140C31.3401 140 0 108.66 0 70C0 31.3401 31.3401 0 70 0C108.66 0 140 31.3401 140 70Z" fill="white"/>
    <g filter="url(#filter0_b_3_5)">
        <path d="M78.8639 60.1955L76.0594 54.3317L64.3317 59.9406L67.1361 65.8045L78.8639 60.1955ZM89.1361 111.804C90.685 115.043 94.5659 116.413 97.8045 114.864C101.043 113.315 102.413 109.434 100.864 106.196L89.1361 111.804ZM67.1361 65.8045L89.1361 111.804L100.864 106.196L78.8639 60.1955L67.1361 65.8045Z" fill="black"/>
    </g>
    <g filter="url(#filter1_b_3_5)">
        <path d="M82 31L62.9003 43.9821L83.693 54.0319L82 31ZM51.1993 90.1297C50.7186 91.1242 51.1352 92.32 52.1297 92.8007C53.1242 93.2814 54.32 92.8648 54.8007 91.8703L51.1993 90.1297ZM72.3663 46.3359L51.1993 90.1297L54.8007 91.8703L75.9677 48.0766L72.3663 46.3359Z" fill="black"/>
    </g>
    <g filter="url(#filter2_b_3_5)">
        <path d="M107 35L95 108.569" stroke="black" stroke-width="13" stroke-linecap="round"/>
    </g>
    <g filter="url(#filter3_b_3_5)">
        <path d="M65.0235 52.1955L67.8279 46.3317L79.5557 51.9406L76.7512 57.8045L65.0235 52.1955ZM50.8639 111.933C49.315 115.171 45.4341 116.541 42.1955 114.992C38.957 113.443 37.5873 109.562 39.1361 106.324L50.8639 111.933ZM76.7512 57.8045L50.8639 111.933L39.1361 106.324L65.0235 52.1955L76.7512 57.8045Z" fill="black"/>
    </g>
    <g filter="url(#filter4_b_3_5)">
        <path d="M33 35L45 108.569" stroke="black" stroke-width="13" stroke-linecap="round"/>
    </g>
    <defs>
        <filter id="filter0_b_3_5" x="60.3317" y="50.3317" width="45.1698" height="69.1698" filterUnits="userSpaceOnUse" color-interpolation-filters="sRGB">
            <feFlood flood-opacity="0" result="BackgroundImageFix"/>
            <feGaussianBlur in="BackgroundImageFix" stdDeviation="2"/>
            <feComposite in2="SourceAlpha" operator="in" result="effect1_backgroundBlur_3_5"/>
            <feBlend mode="normal" in="SourceGraphic" in2="effect1_backgroundBlur_3_5" result="shape"/>
        </filter>
        <filter id="filter1_b_3_5" x="46.9995" y="27" width="40.6934" height="70.0005" filterUnits="userSpaceOnUse" color-interpolation-filters="sRGB">
            <feFlood flood-opacity="0" result="BackgroundImageFix"/>
            <feGaussianBlur in="BackgroundImageFix" stdDeviation="2"/>
            <feComposite in2="SourceAlpha" operator="in" result="effect1_backgroundBlur_3_5"/>
            <feBlend mode="normal" in="SourceGraphic" in2="effect1_backgroundBlur_3_5" result="shape"/>
        </filter>
        <filter id="filter2_b_3_5" x="84.499" y="24.499" width="33.002" height="94.5706" filterUnits="userSpaceOnUse" color-interpolation-filters="sRGB">
            <feFlood flood-opacity="0" result="BackgroundImageFix"/>
            <feGaussianBlur in="BackgroundImageFix" stdDeviation="2"/>
            <feComposite in2="SourceAlpha" operator="in" result="effect1_backgroundBlur_3_5"/>
            <feBlend mode="normal" in="SourceGraphic" in2="effect1_backgroundBlur_3_5" result="shape"/>
        </filter>
        <filter id="filter3_b_3_5" x="34.4985" y="42.3317" width="49.0572" height="77.2979" filterUnits="userSpaceOnUse" color-interpolation-filters="sRGB">
            <feFlood flood-opacity="0" result="BackgroundImageFix"/>
            <feGaussianBlur in="BackgroundImageFix" stdDeviation="2"/>
            <feComposite in2="SourceAlpha" operator="in" result="effect1_backgroundBlur_3_5"/>
            <feBlend mode="normal" in="SourceGraphic" in2="effect1_backgroundBlur_3_5" result="shape"/>
        </filter>
        <filter id="filter4_b_3_5" x="22.499" y="24.499" width="33.002" height="94.5706" filterUnits="userSpaceOnUse" color-interpolation-filters="sRGB">
            <feFlood flood-opacity="0" result="BackgroundImageFix"/>
            <feGaussianBlur in="BackgroundImageFix" stdDeviation="2"/>
            <feComposite in2="SourceAlpha" operator="in" result="effect1_backgroundBlur_3_5"/>
            <feBlend mode="normal" in="SourceGraphic" in2="effect1_backgroundBlur_3_5" result="shape"/>
        </filter>
    </defs>
</svg>
